HIERARCHY
ROOT hip
{
  OFFSET 0 0 0
  CHANNELS 6 Xposition Yposition Zposition Zrotation Yrotation Xrotation
  JOINT abdomen
  {
    OFFSET 0 20.6881 -0.73152
    CHANNELS 3 Zrotation Xrotation Yrotation
    JOINT chest
    {
      OFFSET 0 11.7043 -0.48768
      CHANNELS 3 Zrotation Xrotation Yrotation
      JOINT neck
      {
        OFFSET 0 22.1894 -2.19456
        CHANNELS 3 Zrotation Xrotation Yrotation
        JOINT head
        {
          OFFSET -0.24384 7.07133 1.2192
          CHANNELS 3 Zrotation Xrotation Yrotation
          JOINT leftEye
          {
            OFFSET 4.14528 8.04674 8.04672
            CHANNELS 3 Zrotation Xrotation Yrotation
            End Site
            {
              OFFSET 1 0 0
            }
          }
          JOINT rightEye
          {
            OFFSET -3.6576 8.04674 8.04672
            CHANNELS 3 Zrotation Xrotation Yrotation
            End Site
            {
              OFFSET 1 0 0
            }
          }
        }
      }
      JOINT rCollar
      {
        OFFSET -2.68224 19.2634 -4.8768
        CHANNELS 3 Zrotation Xrotation Yrotation
        JOINT rShldr
        {
          OFFSET -8.77824 -1.95073 1.46304
          CHANNELS 3 Zrotation Xrotation Yrotation
          JOINT rForeArm
          {
            OFFSET -28.1742 -1.7115 0.48768
            CHANNELS 3 Zrotation Xrotation Yrotation
            JOINT rHand
            {
              OFFSET -22.5879 0.773209 7.07136
              CHANNELS 3 Zrotation Xrotation Yrotation
              JOINT rThumb1
              {
                OFFSET -1.2192 -0.487915 3.41376
                CHANNELS 3 Zrotation Xrotation Yrotation
                JOINT rThumb2
                {
                  OFFSET -3.37035 -0.52449 3.41376
                  CHANNELS 3 Zrotation Xrotation Yrotation
                  End Site
                  {
                    OFFSET -1.78271 -1.18214 1.43049
                  }
                }
              }
              JOINT rIndex1
              {
                OFFSET -7.75947 0.938293 5.60832
                CHANNELS 3 Zrotation Xrotation Yrotation
                JOINT rIndex2
                {
                  OFFSET -2.54057 -0.884171 1.56538
                  CHANNELS 3 Zrotation Xrotation Yrotation
                  End Site
                  {
                    OFFSET -1.62519 -0.234802 1.16502
                  }
                }
              }
              JOINT rMid1
              {
                OFFSET -8.24714 1.18213 3.41376
                CHANNELS 3 Zrotation Xrotation Yrotation
                JOINT rMid2
                {
                  OFFSET -3.10165 -0.590103 1.0647
                  CHANNELS 3 Zrotation Xrotation Yrotation
                  End Site
                  {
                    OFFSET -2.48547 -0.328903 0.83742
                  }
                }
              }
              JOINT rRing1
              {
                OFFSET -8.82822 0.546677 1.51678
                CHANNELS 3 Zrotation Xrotation Yrotation
                JOINT rRing2
                {
                  OFFSET -2.60934 -0.819778 -0.0198488
                  CHANNELS 3 Zrotation Xrotation Yrotation
                  End Site
                  {
                    OFFSET -2.33842 -0.294052 0.168128
                  }
                }
              }
              JOINT rPinky1
              {
                OFFSET -8.27202 -0.0477905 -0.4584
                CHANNELS 3 Zrotation Xrotation Yrotation
                JOINT rPinky2
                {
                  OFFSET -1.82734 -0.647385 -0.700984
                  CHANNELS 3 Zrotation Xrotation Yrotation
                  End Site
                  {
                    OFFSET -1.69225 -0.51767 -0.607171
                  }
                }
              }
            }
          }
        }
      }
      JOINT lCollar
      {
        OFFSET 2.68224 19.2634 -4.8768
        CHANNELS 3 Zrotation Xrotation Yrotation
        JOINT lShldr
        {
          OFFSET 8.77824 -1.95073 1.46304
          CHANNELS 3 Zrotation Xrotation Yrotation
          JOINT lForeArm
          {
            OFFSET 28.1742 -1.7115 0.48768
            CHANNELS 3 Zrotation Xrotation Yrotation
            JOINT lHand
            {
              OFFSET 22.5879 0.773209 7.07136
              CHANNELS 3 Zrotation Xrotation Yrotation
              JOINT lThumb1
              {
                OFFSET 1.2192 -0.487915 3.41376
                CHANNELS 3 Zrotation Xrotation Yrotation
                JOINT lThumb2
                {
                  OFFSET 3.37035 -0.52449 3.41376
                  CHANNELS 3 Zrotation Xrotation Yrotation
                  End Site
                  {
                    OFFSET 1.78271 -1.18214 1.43049
                  }
                }
              }
              JOINT lIndex1
              {
                OFFSET 7.75947 0.938293 5.60832
                CHANNELS 3 Zrotation Xrotation Yrotation
                JOINT lIndex2
                {
                  OFFSET 2.54057 -0.884171 1.56538
                  CHANNELS 3 Zrotation Xrotation Yrotation
                  End Site
                  {
                    OFFSET 1.62519 -0.234802 1.16502
                  }
                }
              }
              JOINT lMid1
              {
                OFFSET 8.24714 1.18213 3.41376
                CHANNELS 3 Zrotation Xrotation Yrotation
                JOINT lMid2
                {
                  OFFSET 3.10165 -0.590103 1.0647
                  CHANNELS 3 Zrotation Xrotation Yrotation
                  End Site
                  {
                    OFFSET 2.48547 -0.328903 0.83742
                  }
                }
              }
              JOINT lRing1
              {
                OFFSET 8.82822 0.546677 1.51678
                CHANNELS 3 Zrotation Xrotation Yrotation
                JOINT lRing2
                {
                  OFFSET 2.60934 -0.819778 -0.0198488
                  CHANNELS 3 Zrotation Xrotation Yrotation
                  End Site
                  {
                    OFFSET 2.33842 -0.294052 0.168128
                  }
                }
              }
              JOINT lPinky1
              {
                OFFSET 8.27202 -0.0477905 -0.4584
                CHANNELS 3 Zrotation Xrotation Yrotation
                JOINT lPinky2
                {
                  OFFSET 1.82734 -0.647385 -0.700984
                  CHANNELS 3 Zrotation Xrotation Yrotation
                  End Site
                  {
                    OFFSET 1.69225 -0.51767 -0.607171
                  }
                }
              }
            }
          }
        }
      }
    }
  }
  JOINT rButtock
  {
    OFFSET -8.77824 4.35084 1.2192
    CHANNELS 3 Zrotation Xrotation Yrotation
    JOINT rThigh
    {
      OFFSET 0 -1.70687 -2.19456
      CHANNELS 3 Zrotation Xrotation Yrotation
      JOINT rShin
      {
        OFFSET 0 -36.8199 0.73152
        CHANNELS 3 Zrotation Xrotation Yrotation
        JOINT rFoot
        {
          OFFSET 0.73152 -45.1104 -5.12064
          CHANNELS 3 Zrotation Xrotation Yrotation
          End Site
          {
            OFFSET -1.1221 -3.69964 12.103
          }
        }
      }
    }
  }
  JOINT lButtock
  {
    OFFSET 8.77824 4.35084 1.2192
    CHANNELS 3 Zrotation Xrotation Yrotation
    JOINT lThigh
    {
      OFFSET 0 -1.70687 -2.19456
      CHANNELS 3 Zrotation Xrotation Yrotation
      JOINT lShin
      {
        OFFSET 0 -36.8199 0.73152
        CHANNELS 3 Zrotation Xrotation Yrotation
        JOINT lFoot
        {
          OFFSET -0.73152 -45.1104 -5.12064
          CHANNELS 3 Zrotation Xrotation Yrotation
          End Site
          {
            OFFSET 1.1221 -3.69964 12.103
          }
        }
      }
    }
  }
}
MOTION
Frames:	6
Frame Time:	0.03333
-0.0037599998904624954 54.819297790527344 -0.004999999873689376 1.2854418754577637 45.03630065917969 2.157017707824707 -7.721859931945801 8.079385757446289 -3.2443761825561523 4.99526834487915 -9.950818061828613 -0.5101755857467651 -9.921773910522461 20.059486389160156 -15.830606460571289 17.166893005371094 -22.120187759399414 -28.089603424072266 -0.0 0.0 -0.0 -0.0 0.0 -0.0 -0.0 0.0 -0.0 59.47480392456055 -0.5470338463783264 24.626298904418945 -28.24300193786621 -32.34530258178711 71.01240539550781 -0.4269501566886902 17.954267501831055 2.612528085708618 -0.0 0.0 -0.0 -0.0 0.0 -0.0 -0.0 0.0 -0.0 7.73087739944458 5.47489595413208 0.41732463240623474 -0.0 0.0 -0.0 2.9054994583129883 0.9650753736495972 0.10300876200199127 -0.0 0.0 -0.0 10.278595924377441 0.7317469120025635 0.026285577565431595 -0.0 0.0 -0.0 2.221662759780884 -0.7335850596427917 -0.20831839740276337 -0.0 0.0 -0.0 -64.68618774414062 79.87516784667969 -10.146587371826172 27.62099838256836 -42.07310485839844 -87.72289276123047 44.570247650146484 -79.9062728881836 52.13800811767578 -0.0 0.0 -0.0 -0.0 0.0 -0.0 -0.0 0.0 -0.0 -7.73087739944458 5.47489595413208 -0.41732463240623474 -0.0 0.0 -0.0 -2.9054994583129883 0.9650753736495972 -0.10300876200199127 -0.0 0.0 -0.0 -10.278595924377441 0.7317469120025635 -0.026285577565431595 -0.0 0.0 -0.0 -2.221662759780884 -0.7335850596427917 0.20831839740276337 -0.0 0.0 -0.0 -62.494895935058594 -46.334999084472656 -63.2908935546875 -1.7368627786636353 66.34188842773438 1.6537253856658936 -0.12309302389621735 4.459746837615967 9.511539459228516 -0.0 0.0 -0.0 28.161603927612305 -24.57720375061035 33.052001953125 3.131030797958374 79.83472442626953 -6.453151226043701 12.48250675201416 -28.815603256225586 25.543598175048828
-0.009560000034980476 54.8130989074707 -0.010999999722116627 1.2603172063827515 45.03530502319336 2.124403953552246 -7.689841270446777 8.101075172424316 -3.2474048137664795 4.99892520904541 -9.951683044433594 -0.5104471445083618 -9.927989959716797 20.035995483398438 -15.818902969360352 17.140798568725586 -22.09300422668457 -28.072002410888672 -0.0 0.0 -0.0 -0.0 0.0 -0.0 -0.0 0.0 -0.0 59.46979904174805 -0.5373319983482361 24.640405654907227 -28.242599487304688 -32.33839416503906 71.00200653076172 -0.39743858575820923 17.945026397705078 2.6064183712005615 -0.0 0.0 -0.0 -0.0 0.0 -0.0 -0.0 0.0 -0.0 7.73087739944458 5.47489595413208 0.41732463240623474 -0.0 0.0 -0.0 2.9054994583129883 0.9650753736495972 0.10300876200199127 -0.0 0.0 -0.0 10.278595924377441 0.7317469120025635 0.026285577565431595 -0.0 0.0 -0.0 2.221662759780884 -0.7335850596427917 -0.20831839740276337 -0.0 0.0 -0.0 -64.7257080078125 79.85160827636719 -10.113913536071777 27.621702194213867 -42.07219696044922 -87.71869659423828 44.70303726196289 -79.90567779541016 52.25794219970703 -0.0 0.0 -0.0 -0.0 0.0 -0.0 -0.0 0.0 -0.0 -7.73087739944458 5.47489595413208 -0.41732463240623474 -0.0 0.0 -0.0 -2.9054994583129883 0.9650753736495972 -0.10300876200199127 -0.0 0.0 -0.0 -10.278595924377441 0.7317469120025635 -0.026285577565431595 -0.0 0.0 -0.0 -2.221662759780884 -0.7335850596427917 0.20831839740276337 -0.0 0.0 -0.0 -62.4691047668457 -46.33740234375 -63.28360366821289 -1.7375067472457886 66.34920501708984 1.6537870168685913 -0.12200114130973816 4.457294464111328 9.509135246276855 -0.0 0.0 -0.0 28.198911666870117 -24.572795867919922 33.06290054321289 3.1378893852233887 79.85603332519531 -6.461781978607178 12.489287376403809 -28.809598922729492 25.55719566345215
-0.01368000012007542 54.80549931526184 -0.021999999808031134 1.229673981666565 45.034305572509766 2.100759506225586 -7.656476974487305 8.117599487304688 -3.2550113201141357 5.003030776977539 -9.95456600189209 -0.5109049677848816 -9.933374404907227 20.011695861816406 -15.808700561523438 17.11440658569336 -22.069995880126953 -28.056795120239258 -0.0 0.0 -0.0 -0.0 0.0 -0.0 -0.0 0.0 -0.0 59.46359634399414 -0.5268420577049255 24.655498504638672 -28.242589950561523 -32.3335075378418 70.99420166015625 -0.4113610088825226 17.93210792541504 2.6067888736724854 -0.0 0.0 -0.0 -0.0 0.0 -0.0 -0.0 0.0 -0.0 7.73087739944458 5.47489595413208 0.41732463240623474 -0.0 0.0 -0.0 2.9054994583129883 0.9650753736495972 0.10300876200199127 -0.0 0.0 -0.0 10.278595924377441 0.7317469120025635 0.026285577565431595 -0.0 0.0 -0.0 2.221662759780884 -0.7335850596427917 -0.20831839740276337 -0.0 0.0 -0.0 -64.77790832519531 79.81817626953125 -10.070172309875488 27.62179183959961 -42.073204040527344 -87.71969604492188 44.670230865478516 -79.91989135742188 52.23952865600586 -0.0 0.0 -0.0 -0.0 0.0 -0.0 -0.0 0.0 -0.0 -7.73087739944458 5.47489595413208 -0.41732463240623474 -0.0 0.0 -0.0 -2.9054994583129883 0.9650753736495972 -0.10300876200199127 -0.0 0.0 -0.0 -10.278595924377441 0.7317469120025635 -0.026285577565431595 -0.0 0.0 -0.0 -2.221662759780884 -0.7335850596427917 0.20831839740276337 -0.0 0.0 -0.0 -62.45439910888672 -46.3411979675293 -63.28799819946289 -1.7369287014007568 66.35759735107422 1.6522655487060547 -0.12171275168657303 4.457961559295654 9.510473251342773 -0.0 0.0 -0.0 28.230600357055664 -24.581592559814453 33.06930160522461 3.1475987434387207 79.88129425048828 -6.4725728034973145 12.49148941040039 -28.811603546142578 25.559894561767578
-0.014880000162520446 54.80030179023743 -0.033999999504885636 1.229744791984558 45.03550338745117 2.108315944671631 -7.645072937011719 8.124795913696289 -3.2602195739746094 5.005072116851807 -9.961426734924316 -0.511889636516571 -9.9345703125 20.001300811767578 -15.804397583007812 17.100797653198242 -22.060794830322266 -28.051406860351562 -0.0 0.0 -0.0 -0.0 0.0 -0.0 -0.0 0.0 -0.0 59.46149826049805 -0.5256953835487366 24.668703079223633 -28.24329948425293 -32.33290481567383 70.99259948730469 -0.4247739017009735 17.90886878967285 2.605459690093994 -0.0 0.0 -0.0 -0.0 0.0 -0.0 -0.0 0.0 -0.0 7.73087739944458 5.47489595413208 0.41732463240623474 -0.0 0.0 -0.0 2.9054994583129883 0.9650753736495972 0.10300876200199127 -0.0 0.0 -0.0 10.278595924377441 0.7317469120025635 0.026285577565431595 -0.0 0.0 -0.0 2.221662759780884 -0.7335850596427917 -0.20831839740276337 -0.0 0.0 -0.0 -64.81258392333984 79.78509521484375 -10.038409233093262 27.619794845581055 -42.0796012878418 -87.7334976196289 44.68048858642578 -79.90209197998047 52.23456573486328 -0.0 0.0 -0.0 -0.0 0.0 -0.0 -0.0 0.0 -0.0 -7.73087739944458 5.47489595413208 -0.41732463240623474 -0.0 0.0 -0.0 -2.9054994583129883 0.9650753736495972 -0.10300876200199127 -0.0 0.0 -0.0 -10.278595924377441 0.7317469120025635 -0.026285577565431595 -0.0 0.0 -0.0 -2.221662759780884 -0.7335850596427917 0.20831839740276337 -0.0 0.0 -0.0 -62.489315032958984 -46.34879684448242 -63.31940841674805 -1.737004280090332 66.36698150634766 1.6518689393997192 -0.12307073175907135 4.4690704345703125 9.521554946899414 -0.0 0.0 -0.0 28.228599548339844 -24.6155948638916 33.068294525146484 3.1617271900177 79.91083526611328 -6.485320568084717 12.476825714111328 -28.843692779541016 25.521196365356445
-0.013630000194098102 54.79609966278076 -0.04399999925226439 1.260943055152893 45.0414924621582 2.1388168334960938 -7.648232936859131 8.132111549377441 -3.2656803131103516 5.006163120269775 -9.970243453979492 -0.5127657055854797 -9.933972358703613 19.99649429321289 -15.802990913391113 17.093399047851562 -22.05339813232422 -28.050098419189453 -0.0 0.0 -0.0 -0.0 0.0 -0.0 -0.0 0.0 -0.0 59.46059799194336 -0.5288195013999939 24.67750358581543 -28.243894577026367 -32.33399963378906 70.9931869506836 -0.39481571316719055 17.889911651611328 2.5979156494140625 -0.0 0.0 -0.0 -0.0 0.0 -0.0 -0.0 0.0 -0.0 7.73087739944458 5.47489595413208 0.41732463240623474 -0.0 0.0 -0.0 2.9054994583129883 0.9650753736495972 0.10300876200199127 -0.0 0.0 -0.0 10.278595924377441 0.7317469120025635 0.026285577565431595 -0.0 0.0 -0.0 2.221662759780884 -0.7335850596427917 -0.20831839740276337 -0.0 0.0 -0.0 -64.81468200683594 79.75350189208984 -10.03619384765625 27.617198944091797 -42.08749771118164 -87.75119018554688 44.54520034790039 -79.90288543701172 52.1125373840332 -0.0 0.0 -0.0 -0.0 0.0 -0.0 -0.0 0.0 -0.0 -7.73087739944458 5.47489595413208 -0.41732463240623474 -0.0 0.0 -0.0 -2.9054994583129883 0.9650753736495972 -0.10300876200199127 -0.0 0.0 -0.0 -10.278595924377441 0.7317469120025635 -0.026285577565431595 -0.0 0.0 -0.0 -2.221662759780884 -0.7335850596427917 0.20831839740276337 -0.0 0.0 -0.0 -62.54349136352539 -46.35309600830078 -63.35580062866211 -1.7365739345550537 66.3788833618164 1.650931715965271 -0.12563742697238922 4.483154773712158 9.536855697631836 -0.0 0.0 -0.0 28.205896377563477 -24.653898239135742 33.05729293823242 3.175753355026245 79.93930053710938 -6.497805118560791 12.462992668151855 -28.875896453857422 25.483701705932617
-0.00946000009207637 54.79360222816467 -0.05199999905016739 1.2981784343719482 45.05119705200195 2.164109468460083 -7.666317462921143 8.147650718688965 -3.273834466934204 5.006574630737305 -9.980141639709473 -0.5131327509880066 -9.93319320678711 19.994705200195312 -15.802496910095215 17.094511032104492 -22.040197372436523 -28.04879379272461 -0.0 0.0 -0.0 -0.0 0.0 -0.0 -0.0 0.0 -0.0 59.46039962768555 -0.5362681746482849 24.678203582763672 -28.24329948425293 -32.33509063720703 70.993896484375 -0.4094456136226654 17.892093658447266 2.6005518436431885 -0.0 0.0 -0.0 -0.0 0.0 -0.0 -0.0 0.0 -0.0 7.73087739944458 5.47489595413208 0.41732463240623474 -0.0 0.0 -0.0 2.9054994583129883 0.9650753736495972 0.10300876200199127 -0.0 0.0 -0.0 10.278595924377441 0.7317469120025635 0.026285577565431595 -0.0 0.0 -0.0 2.221662759780884 -0.7335850596427917 -0.20831839740276337 -0.0 0.0 -0.0 -64.75707244873047 79.72631072998047 -10.090422630310059 27.61459732055664 -42.095088958740234 -87.7686996459961 44.4937629699707 -79.89579772949219 52.060359954833984 -0.0 0.0 -0.0 -0.0 0.0 -0.0 -0.0 0.0 -0.0 -7.73087739944458 5.47489595413208 -0.41732463240623474 -0.0 0.0 -0.0 -2.9054994583129883 0.9650753736495972 -0.10300876200199127 -0.0 0.0 -0.0 -10.278595924377441 0.7317469120025635 -0.026285577565431595 -0.0 0.0 -0.0 -2.221662759780884 -0.7335850596427917 0.20831839740276337 -0.0 0.0 -0.0 -62.59959411621094 -46.34630584716797 -63.3794059753418 -1.7383403778076172 66.39509582519531 1.6530284881591797 -0.12729188799858093 4.49558687210083 9.552538871765137 -0.0 0.0 -0.0 28.164289474487305 -24.681503295898438 33.0286979675293 3.185490846633911 79.96161651611328 -6.508579730987549 12.468605041503906 -28.879398345947266 25.489992141723633
